<svg width="16" height="16" viewBox="0 0 16 16" fill="none" xmlns="http://www.w3.org/2000/svg">
<path fill-rule="evenodd" clip-rule="evenodd" d="M7.4513 0.441848C7.60866 0.381326 7.78422 0.389801 7.93502 0.465199L11.935 2.4652C12.061 2.52818 12.1608 2.63347 12.2169 2.76262L15.5503 10.4293C15.6731 10.7118 15.562 11.0415 15.2932 11.192L6.95985 15.8587C6.75612 15.9728 6.5047 15.9583 6.3154 15.8216L0.315397 11.4883C0.104963 11.3363 0.0161241 11.0662 0.0952368 10.819L2.7619 2.48566C2.81732 2.31249 2.94827 2.17379 3.11797 2.10852L7.4513 0.441848ZM3.67692 3.56356L6.71073 5.33328L6.13784 14.2131L1.37078 10.7702L3.67692 3.56356ZM7.3365 14.2724L14.2334 10.4101L11.3611 3.80373L7.90912 5.39694L7.3365 14.2724ZM7.36571 4.3261L10.2818 2.98022L7.63507 1.65687L4.71512 2.77993L7.36571 4.3261Z" fill="currentColor"/>
</svg>
