<svg width="16" height="16" viewBox="0 0 16 16" fill="none" xmlns="http://www.w3.org/2000/svg">
<path d="M8 14C11.3137 14 14 11.3137 14 8C14 4.68629 11.3137 2 8 2C4.68629 2 2 4.68629 2 8C2 11.3137 4.68629 14 8 14Z" stroke="currentColor" stroke-opacity="0.85" stroke-linecap="round" stroke-linejoin="round"/>
<mask id="path-2-inside-1_1655_16165" fill="white">
<path d="M8 11.75C8.27614 11.75 8.5 11.5261 8.5 11.25C8.5 10.9739 8.27614 10.75 8 10.75C7.72386 10.75 7.5 10.9739 7.5 11.25C7.5 11.5261 7.72386 11.75 8 11.75Z"/>
</mask>
<path d="M8 11.75C8.27614 11.75 8.5 11.5261 8.5 11.25C8.5 10.9739 8.27614 10.75 8 10.75C7.72386 10.75 7.5 10.9739 7.5 11.25C7.5 11.5261 7.72386 11.75 8 11.75Z" fill="currentColor"/>
<path d="M7.5 11.25C7.5 10.9739 7.72386 10.75 8 10.75V12.75C8.82843 12.75 9.5 12.0784 9.5 11.25H7.5ZM8 10.75C8.27614 10.75 8.5 10.9739 8.5 11.25H6.5C6.5 12.0784 7.17157 12.75 8 12.75V10.75ZM8.5 11.25C8.5 11.5261 8.27614 11.75 8 11.75V9.75C7.17157 9.75 6.5 10.4216 6.5 11.25H8.5ZM8 11.75C7.72386 11.75 7.5 11.5261 7.5 11.25H9.5C9.5 10.4216 8.82843 9.75 8 9.75V11.75Z" fill="currentColor" fill-opacity="0.85" mask="url(#path-2-inside-1_1655_16165)"/>
<path d="M8 9.00049V8.50049C8.34612 8.50049 8.68446 8.39785 8.97225 8.20556C9.26003 8.01327 9.48434 7.73996 9.61679 7.42019C9.74924 7.10041 9.7839 6.74855 9.71637 6.40908C9.64885 6.06961 9.48218 5.75779 9.23744 5.51305C8.9927 5.26831 8.68087 5.10164 8.34141 5.03411C8.00194 4.96659 7.65008 5.00125 7.3303 5.1337C7.01053 5.26615 6.73722 5.49046 6.54493 5.77824C6.35264 6.06603 6.25 6.40437 6.25 6.75049" stroke="currentColor" stroke-opacity="0.85" stroke-linecap="round" stroke-linejoin="round"/>
</svg>
